<svg id="Layer_1" data-name="Layer 1" xmlns="http://www.w3.org/2000/svg" xmlns:xlink="http://www.w3.org/1999/xlink" viewBox="0 0 100 100"><defs><style>.cls-1{fill-rule:evenodd;fill:url(#linear-gradient);}</style><linearGradient id="linear-gradient" x1="1.33" y1="50" x2="98.67" y2="50" gradientUnits="userSpaceOnUse"><stop offset="0" stop-color="#ba8525"/><stop offset="0.44" stop-color="#f9f1a0"/><stop offset="1" stop-color="#ba8525"/></linearGradient></defs><path class="cls-1" d="M88.73,82.39c-.39,1.38-2.58,3.46-10.31,5.92C66,92.25,45.34,81.5,40.17,78.64l.5-.59h0a46.44,46.44,0,0,0,3.86-7.47c1.1-2.73,2.1-5.53,3-8.42s1.71-5.83,2.46-8.82,1.5-5.94,2.25-8.82l1-.2.9-.2c1.65-.35,3.23-.73,4.71-1.15a38,38,0,0,0,4.26-1.43,42.28,42.28,0,0,0,9.71-5.05,32.76,32.76,0,0,0,6.65-6.22,24.63,24.63,0,0,0,3.88-6.82,22.12,22.12,0,0,0,1.37-6.86,19.27,19.27,0,0,0-.84-6.31A15,15,0,0,0,81.15,5.1a12.93,12.93,0,0,0-4.36-3.43A12.2,12.2,0,0,0,71.09.5a17.65,17.65,0,0,0-6.76,1.7,30.62,30.62,0,0,0-7.51,5.14,45.16,45.16,0,0,0-6.77,7.86A54.26,54.26,0,0,0,45.22,24a76.2,76.2,0,0,0-3.39,9.36c-.93,3.21-1.78,6.42-2.57,9.68-1.64.22-3.47.44-5.47.6a44.64,44.64,0,0,1-6,.15A28.68,28.68,0,0,1,22.06,43a12.9,12.9,0,0,1-4.78-2.16A9,9,0,0,1,14.8,38a12.81,12.81,0,0,1-1.41-3.66,12.52,12.52,0,0,1-.27-4,11,11,0,0,1,1-3.87,10.74,10.74,0,0,1,2.37-3.25A9.44,9.44,0,0,1,20.31,21,13.56,13.56,0,0,0,19,17.3a5.21,5.21,0,0,0-3-2.45,7.9,7.9,0,0,0-5.34-.27,10.37,10.37,0,0,0-4.48,2.87,14.73,14.73,0,0,0-3.06,5A17.53,17.53,0,0,0,2,28.8a17.26,17.26,0,0,0,1.42,6.59,15.91,15.91,0,0,0,4.49,5.87A24.45,24.45,0,0,0,16,45.52,38.91,38.91,0,0,0,28.3,47.19c1.66,0,3.34,0,5.07-.15s3.38-.25,5-.44c-1,4.35-2,8.69-3.15,13a77,77,0,0,1-4.41,12.46,35.92,35.92,0,0,0-11-2.66,24.53,24.53,0,0,0-8.64.9,15.7,15.7,0,0,0-6,3.41,11.83,11.83,0,0,0-3.24,4.91A9.31,9.31,0,0,0,4.7,88.78,16.35,16.35,0,0,0,11.24,92a29.3,29.3,0,0,0,10.23.6,15.82,15.82,0,0,0,2.05-.41c.65-.17,1.3-.37,1.95-.55a28.39,28.39,0,0,0,10.13-7c1.43,1.14,3.69,2.9,7.25,5.56,10.35,7.76,30.21,10,36.22,9.06s17.46-3.88,19.4-14.88a13.78,13.78,0,0,0,.2-2ZM58.67,25.8a45.88,45.88,0,0,1,5.34-9,13.33,13.33,0,0,1,4.91-4.14,5.12,5.12,0,0,1,4-.2,5.24,5.24,0,0,1,2.67,2.8,10.52,10.52,0,0,1,.9,4.82A17.38,17.38,0,0,1,75.16,26a19.38,19.38,0,0,1-4,6.07,27.14,27.14,0,0,1-7.1,5.23,36.91,36.91,0,0,1-10.69,3.42A103.22,103.22,0,0,1,58.67,25.8ZM27.13,78.87a14.61,14.61,0,0,1-2.86,2.8,15.53,15.53,0,0,1-3.63,2.06,14.73,14.73,0,0,1-4.34,1,15.41,15.41,0,0,1-5.75-.4,5.73,5.73,0,0,1-3-1.93,3.55,3.55,0,0,1-.63-2.81,6.06,6.06,0,0,1,1.48-3A11.23,11.23,0,0,1,11.62,74a13.3,13.3,0,0,1,4.76-1.48,17.81,17.81,0,0,1,5.93.28,22.65,22.65,0,0,1,6.77,2.76A13.58,13.58,0,0,1,27.13,78.87Z"/></svg>